<svg enable-background="new 0 0 512 512" height="512" viewBox="0 0 512 512" width="512" xmlns="http://www.w3.org/2000/svg" xmlns:xlink="http://www.w3.org/1999/xlink"><linearGradient id="SVGID_1_" gradientUnits="userSpaceOnUse" x1=".483" x2="513.421" y1="256.667" y2="256.667"><stop offset="0" stop-color="#8a2387"/><stop offset=".499" stop-color="#e94057"/><stop offset="1" stop-color="#f27121"/></linearGradient><g id="_x34_8._web"><path d="m438.155 76.124c-6.733-7.02-17.613 3.715-10.671 10.54 13.424 13.593 25.027 28.518 34.717 44.458-37.792 11.606-76.39 19.976-115.436 25.065-7.992-49.21-23.28-106.422-53.803-138.386 39.497 6.031 76.623 21.751 108.931 46.359 7.591 6.091 16.965-6.21 9.089-11.934-44.858-34.166-98.45-52.226-154.982-52.226-222.836-5.513-342.533 283.342-181.011 437.022 245.669 231.456 593.042-113.865 363.166-360.898zm28.713 69.257c.989-.304 1.87-.794 2.616-1.42 16.839 32 26.263 67.574 27.389 104.539h-142.644c-.285-26.766-2.092-52.838-5.316-77.467 39.9-5.212 79.34-13.777 117.955-25.652zm-127.637 103.119h-166.462c.283-27.085 2.095-52.424 5.116-75.688 51.754 5.685 104.468 5.685 156.23-.003 3.021 23.264 4.833 48.605 5.116 75.691zm0 15c-.294 28.11-2.234 54.341-5.464 78.321-51.649-5.145-103.919-5.141-155.537-.018-3.229-23.975-5.168-50.2-5.462-78.303zm-83.231-248.5c30.21 0 62.022 54.65 75.983 142.953-50.346 5.502-101.64 5.486-151.965-.003 13.961-88.301 45.773-142.95 75.982-142.95zm-36.999 2.839c-30.525 32.042-45.751 89.082-53.766 138.345-38.997-5.08-77.541-13.434-115.314-25.026 36.21-59.549 97.493-102.241 169.08-113.319zm-176.367 350.109c-16.537-31.391-26.35-66.846-27.506-104.448 5.82.318 14.569.539 14.585-7.501-.014-8.034-8.771-7.821-14.585-7.499 1.156-37.603 10.97-73.059 27.507-104.451 38.804 13.698 79.879 21.199 120.451 26.991-3.223 24.626-5.03 50.696-5.315 77.46h-100.558c-4.142 0-7.5 3.357-7.5 7.5s3.358 7.5 7.5 7.5h100.558c.295 27.655 2.22 54.562 5.648 79.909-40.544 5.351-81.801 11.789-120.785 24.539zm7.296 12.908c38.015-10.473 76.685-18.017 115.691-22.599 8.006 48.192 23.455 104.676 53.38 135.903-71.581-11.076-132.861-53.763-169.071-113.304zm206.07 116.144c-29.91 0-61.386-53.577-75.557-140.338 50.16-4.931 100.927-4.94 151.113.01-14.172 86.755-45.647 140.328-75.556 140.328zm36.999-2.839c29.946-31.283 45.348-87.638 53.377-135.885 39.032 4.586 77.725 12.118 115.693 22.581-36.21 59.541-97.489 102.227-169.07 113.304zm176.368-126.214c-38.943-12.739-80.211-19.159-120.788-24.514 3.429-25.354 5.356-52.27 5.651-79.933h142.643c-1.157 37.602-10.97 73.057-27.506 104.447z" fill="url(#SVGID_1_)" stroke="#231f20" stroke-miterlimit="10"/></g></svg>