<?xml version="1.0" encoding="UTF-8" standalone="no"?>
<!-- Created with Inkscape (http://www.inkscape.org/) -->

<svg
   version="1.1"
   id="svg5694"
   xml:space="preserve"
   width="682.66669"
   height="682.66669"
   viewBox="0 0 682.66669 682.66669"
   xmlns="http://www.w3.org/2000/svg"
   xmlns:svg="http://www.w3.org/2000/svg"><defs
     id="defs5698"><clipPath
       clipPathUnits="userSpaceOnUse"
       id="clipPath5708"><path
         d="M 0,512 H 512 V 0 H 0 Z"
         id="path5706" /></clipPath></defs><g
     id="g5700"
     transform="matrix(1.3333333,0,0,-1.3333333,0,682.66667)"><g
       id="g5702"><g
         id="g5704"
         clip-path="url(#clipPath5708)"><g
           id="g5710"
           transform="translate(489.5,80.876)"><path
             d="m 0,0 h -467 c -8.284,0 -15,6.716 -15,15 v 349.017 c 0,8.284 6.716,15 15,15 H 0 c 8.284,0 15,-6.716 15,-15 V 15 C 15,6.716 8.284,0 0,0"
             style="fill:#fee07a;fill-opacity:1;fill-rule:nonzero;stroke:none"
             id="path5712" /></g><g
           id="g5714"
           transform="translate(489.5,459.8926)"><path
             d="m 0,0 h -30 c 8.284,0 15,-6.716 15,-15 v -349.017 c 0,-8.284 -6.716,-15 -15,-15 H 0 c 8.284,0 15,6.716 15,15 V -15 C 15,-6.716 8.284,0 0,0"
             style="fill:#fad169;fill-opacity:1;fill-rule:nonzero;stroke:none"
             id="path5716" /></g><g
           id="g5718"
           transform="translate(47.5,145.876)"><path
             d="m 0,0 v 249.016 c 13.807,0 25,11.193 25,25 h 367 c 0,-13.807 11.193,-25 25,-25 V 0 C 403.193,0 392,-11.192 392,-25 H 25 C 25,-11.192 13.807,0 0,0"
             style="fill:#ffffff;fill-opacity:1;fill-rule:nonzero;stroke:none"
             id="path5720" /></g><g
           id="g5722"
           transform="translate(216.8809,315.959)"><path
             d="M 0,0 C -17.032,2.612 -35.9,4.526 -58.423,4.463 -80.037,4.402 -100.584,2.532 -117.092,0 l -0.261,-0.002 c 1.61,-0.019 23.89,-0.689 35.95,-19.869 10.179,-16.184 5.231,-33.113 4.293,-36.02 5.874,-1.963 12.153,-3.043 18.687,-3.043 6.534,0 12.813,1.08 18.687,3.043 -0.937,2.907 -5.886,19.836 4.293,36.02 12.06,19.18 34.34,19.85 35.95,19.869 z"
             style="fill:#345e80;fill-opacity:1;fill-rule:nonzero;stroke:none"
             id="path5724" /></g><g
           id="g5726"
           transform="translate(373.061,52.9287)"><path
             d="m 0,0 -24.424,16.637 c -1.591,1.084 -3.683,1.084 -5.274,0 L -54.122,0 c -3.109,-2.118 -7.321,0.108 -7.321,3.871 v 156.06 H 7.321 V 3.871 C 7.321,0.108 3.109,-2.118 0,0"
             style="fill:#f58a97;fill-opacity:1;fill-rule:nonzero;stroke:none"
             id="path5728" /></g><g
           id="g5730"
           transform="translate(350.3818,212.8594)"><path
             d="m 0,0 v -144.482 l 22.679,-15.449 c 3.11,-2.118 7.321,0.109 7.321,3.871 V 0 Z"
             style="fill:#f07281;fill-opacity:1;fill-rule:nonzero;stroke:none"
             id="path5732" /></g><g
           id="g5734"
           transform="translate(422.6396,206.0566)"><path
             d="m 0,0 c 0,-9.622 -12.836,-16.622 -16.306,-24.989 -3.596,-8.673 0.395,-22.667 -6.142,-29.203 -6.536,-6.537 -20.53,-2.546 -29.203,-6.143 -8.367,-3.469 -15.367,-16.305 -24.989,-16.305 -9.621,0 -16.621,12.836 -24.988,16.305 -8.673,3.597 -22.668,-0.394 -29.204,6.143 -6.536,6.536 -2.545,20.53 -6.142,29.204 -3.469,8.366 -16.305,15.366 -16.305,24.988 0,9.621 12.836,16.621 16.305,24.988 3.597,8.673 -0.394,22.668 6.142,29.204 6.537,6.537 20.531,2.545 29.204,6.142 8.367,3.47 15.367,16.306 24.988,16.306 9.622,0 16.622,-12.836 24.989,-16.306 8.673,-3.597 22.668,0.395 29.204,-6.143 6.536,-6.536 2.545,-20.53 6.141,-29.203 C -12.836,16.621 0,9.621 0,0"
             style="fill:#fee07a;fill-opacity:1;fill-rule:nonzero;stroke:none"
             id="path5736" /></g><g
           id="g5738"
           transform="translate(406.3345,231.0449)"><path
             d="m 0,0 c -3.597,8.673 0.395,22.667 -6.142,29.203 -6.536,6.537 -20.53,2.546 -29.204,6.143 -8.367,3.468 -15.367,16.304 -24.988,16.304 -5.632,0 -10.365,-4.396 -15,-8.74 3.284,-3.076 6.519,-6.126 9.988,-7.564 8.674,-3.597 22.668,0.394 29.204,-6.143 C -29.605,22.667 -33.597,8.673 -30,0 c 3.469,-8.367 16.305,-15.367 16.305,-24.988 0,-9.622 -12.836,-16.622 -16.305,-24.989 -3.597,-8.673 0.394,-22.668 -6.142,-29.205 -6.537,-6.535 -20.531,-2.545 -29.204,-6.14 -3.47,-1.44 -6.704,-4.489 -9.988,-7.566 4.635,-4.342 9.368,-8.74 15,-8.74 9.621,0 16.621,12.836 24.988,16.306 8.673,3.595 22.667,-0.395 29.204,6.14 6.536,6.537 2.545,20.532 6.142,29.205 3.469,8.367 16.305,15.367 16.305,24.989 C 16.305,-15.367 3.469,-8.367 0,0"
             style="fill:#fad169;fill-opacity:1;fill-rule:nonzero;stroke:none"
             id="path5740" /></g><g
           id="g5742"
           transform="translate(375.8521,206.0566)"><path
             d="m 0,0 c 0,-16.487 -13.365,-29.853 -29.852,-29.853 -16.487,0 -29.852,13.366 -29.852,29.853 0,16.486 13.365,29.852 29.852,29.852 C -13.365,29.852 0,16.486 0,0"
             style="fill:#f58a97;fill-opacity:1;fill-rule:nonzero;stroke:none"
             id="path5744" /></g><g
           id="g5746"
           transform="translate(346,235.9082)"><path
             d="m 0,0 c -5.47,0 -10.591,-1.479 -15,-4.046 8.879,-5.173 14.852,-14.789 14.852,-25.806 0,-11.017 -5.973,-20.632 -14.852,-25.806 4.409,-2.568 9.53,-4.046 15,-4.046 16.487,0 29.852,13.365 29.852,29.852 C 29.852,-13.365 16.487,0 0,0"
             style="fill:#f07281;fill-opacity:1;fill-rule:nonzero;stroke:none"
             id="path5748" /></g><g
           id="g5750"
           transform="translate(7.5,153.3232)"><path
             d="m 0,0 v -57.443 c 0,-8.29 6.72,-15 15,-15 h 289.12"
             style="fill:none;stroke:#000000;stroke-width:15;stroke-linecap:round;stroke-linejoin:round;stroke-miterlimit:10;stroke-dasharray:none;stroke-opacity:1"
             id="path5752" /></g><g
           id="g5754"
           transform="translate(380.3799,80.8799)"><path
             d="m 0,0 h 109.12 c 8.28,0 15,6.71 15,15 v 349.01 c 0,8.29 -6.72,15 -15,15 h -467 c -8.28,0 -15,-6.71 -15,-15 V 107.443"
             style="fill:none;stroke:#000000;stroke-width:15;stroke-linecap:round;stroke-linejoin:round;stroke-miterlimit:10;stroke-dasharray:none;stroke-opacity:1"
             id="path5756" /></g><g
           id="g5758"
           transform="translate(332.667,419.8896)"><path
             d="m 0,0 h -260.167 c 0,-13.81 -11.19,-25 -25,-25 v -249.01 c 13.81,0 25,-11.2 25,-25 h 239.12"
             style="fill:none;stroke:#000000;stroke-width:15;stroke-linecap:round;stroke-linejoin:round;stroke-miterlimit:10;stroke-dasharray:none;stroke-opacity:1"
             id="path5760" /></g><g
           id="g5762"
           transform="translate(380.3799,120.8799)"><path
             d="m 0,0 h 59.12 c 0,13.8 11.19,25 25,25 v 249.01 c -13.81,0 -25,11.19 -25,25 h -71.833"
             style="fill:none;stroke:#000000;stroke-width:15;stroke-linecap:round;stroke-linejoin:round;stroke-miterlimit:10;stroke-dasharray:none;stroke-opacity:1"
             id="path5764" /></g><g
           id="g5766"
           transform="translate(217.3911,315.959)"><path
             d="m 0,0 c 0,-32.548 -26.385,-58.934 -58.933,-58.934 -32.548,0 -58.934,26.386 -58.934,58.934 0,32.548 26.386,58.933 58.934,58.933 C -26.385,58.933 0,32.548 0,0 Z"
             style="fill:none;stroke:#000000;stroke-width:15;stroke-linecap:round;stroke-linejoin:round;stroke-miterlimit:10;stroke-dasharray:none;stroke-opacity:1"
             id="path5768" /></g><g
           id="g5770"
           transform="translate(177.1479,260.0576)"><path
             d="M 0,0 C -0.93,2.88 -5.9,19.83 4.29,36.03 16.35,55.21 38.63,55.88 40.24,55.9"
             style="fill:none;stroke:#000000;stroke-width:15;stroke-linecap:round;stroke-linejoin:round;stroke-miterlimit:10;stroke-dasharray:none;stroke-opacity:1"
             id="path5772" /></g><g
           id="g5774"
           transform="translate(99.5278,315.958)"><path
             d="m 0,0 c 1.61,-0.021 23.89,-0.69 35.95,-19.87 10.19,-16.2 5.22,-33.151 4.29,-36.03"
             style="fill:none;stroke:#000000;stroke-width:15;stroke-linecap:round;stroke-linejoin:round;stroke-miterlimit:10;stroke-dasharray:none;stroke-opacity:1"
             id="path5776" /></g><g
           id="g5778"
           transform="translate(216.8809,315.959)"><path
             d="M 0,0 C -17.032,2.612 -35.9,4.526 -58.423,4.463 -80.037,4.401 -100.584,2.532 -117.092,0"
             style="fill:none;stroke:#000000;stroke-width:15;stroke-linecap:round;stroke-linejoin:round;stroke-miterlimit:10;stroke-dasharray:none;stroke-opacity:1"
             id="path5780" /></g><g
           id="g5782"
           transform="translate(252.7661,374.8916)"><path
             d="M 0,0 H 162.951"
             style="fill:none;stroke:#000000;stroke-width:15;stroke-linecap:round;stroke-linejoin:round;stroke-miterlimit:10;stroke-dasharray:none;stroke-opacity:1"
             id="path5784" /></g><g
           id="g5786"
           transform="translate(252.7661,344.8916)"><path
             d="M 0,0 H 162.951"
             style="fill:none;stroke:#000000;stroke-width:15;stroke-linecap:round;stroke-linejoin:round;stroke-miterlimit:10;stroke-dasharray:none;stroke-opacity:1"
             id="path5788" /></g><g
           id="g5790"
           transform="translate(252.7661,314.8916)"><path
             d="M 0,0 H 87.951"
             style="fill:none;stroke:#000000;stroke-width:15;stroke-linecap:round;stroke-linejoin:round;stroke-miterlimit:10;stroke-dasharray:none;stroke-opacity:1"
             id="path5792" /></g><g
           id="g5794"
           transform="translate(99.5244,221.0566)"><path
             d="M 0,0 H 123.242"
             style="fill:none;stroke:#000000;stroke-width:15;stroke-linecap:round;stroke-linejoin:round;stroke-miterlimit:10;stroke-dasharray:none;stroke-opacity:1"
             id="path5796" /></g><g
           id="g5798"
           transform="translate(99.5244,191.0566)"><path
             d="M 0,0 H 123.242"
             style="fill:none;stroke:#000000;stroke-width:15;stroke-linecap:round;stroke-linejoin:round;stroke-miterlimit:10;stroke-dasharray:none;stroke-opacity:1"
             id="path5800" /></g><g
           id="g5802"
           transform="translate(99.5244,161.0566)"><path
             d="M 0,0 H 78.242"
             style="fill:none;stroke:#000000;stroke-width:15;stroke-linecap:round;stroke-linejoin:round;stroke-miterlimit:10;stroke-dasharray:none;stroke-opacity:1"
             id="path5804" /></g><g
           id="g5806"
           transform="translate(380.3799,147.4297)"><path
             d="m 0,0 v -90.63 c 0,-3.76 -4.21,-5.99 -7.32,-3.87 l -24.42,16.641 c -1.59,1.08 -3.69,1.08 -5.28,0 L -61.44,-94.5 c -3.11,-2.12 -7.32,0.11 -7.32,3.87 V 0"
             style="fill:none;stroke:#000000;stroke-width:15;stroke-linecap:round;stroke-linejoin:round;stroke-miterlimit:10;stroke-dasharray:none;stroke-opacity:1"
             id="path5808" /></g><g
           id="g5810"
           transform="translate(422.6396,206.0566)"><path
             d="m 0,0 c 0,-9.622 -12.836,-16.622 -16.306,-24.989 -3.596,-8.673 0.395,-22.667 -6.142,-29.203 -6.536,-6.537 -20.53,-2.546 -29.203,-6.143 -8.367,-3.469 -15.367,-16.305 -24.989,-16.305 -9.621,0 -16.621,12.836 -24.988,16.305 -8.673,3.597 -22.668,-0.394 -29.204,6.143 -6.536,6.536 -2.545,20.53 -6.142,29.204 -3.469,8.366 -16.305,15.366 -16.305,24.988 0,9.621 12.836,16.621 16.305,24.988 3.597,8.673 -0.394,22.668 6.142,29.204 6.537,6.537 20.531,2.545 29.204,6.142 8.367,3.47 15.367,16.306 24.988,16.306 9.622,0 16.622,-12.836 24.989,-16.306 8.673,-3.597 22.668,0.395 29.204,-6.143 6.536,-6.536 2.545,-20.53 6.141,-29.203 C -12.836,16.621 0,9.621 0,0 Z"
             style="fill:none;stroke:#000000;stroke-width:15;stroke-linecap:round;stroke-linejoin:round;stroke-miterlimit:10;stroke-dasharray:none;stroke-opacity:1"
             id="path5812" /></g><g
           id="g5814"
           transform="translate(375.8521,206.0566)"><path
             d="m 0,0 c 0,-16.487 -13.365,-29.853 -29.852,-29.853 -16.487,0 -29.852,13.366 -29.852,29.853 0,16.486 13.365,29.852 29.852,29.852 C -13.365,29.852 0,16.486 0,0 Z"
             style="fill:none;stroke:#000000;stroke-width:15;stroke-linecap:round;stroke-linejoin:round;stroke-miterlimit:10;stroke-dasharray:none;stroke-opacity:1"
             id="path5816" /></g></g></g></g></svg>
