<svg height="512" viewBox="0 0 58 58" width="512" xmlns="http://www.w3.org/2000/svg"><g id="Page-1" fill="none" fill-rule="evenodd"><g id="004---Male-Developer" fill-rule="nonzero"><path id="Shape" d="m36 49h-33c-1.65685425 0-3-1.3431458-3-3v-34c0-1.6568542 1.34314575-3 3-3h33z" fill="#b0d3f0"/><path id="Shape" d="m36 9v8h-36v-5c0-1.6568542 1.34314575-3 3-3z" fill="#4482c3"/><path id="Shape" d="m46.012 42s5.339 1 8.2 4c2.223 2.329 3.569 7.08 3.784 10.934.0182404.2757605-.0784535.5467747-.2671291.7487106-.1886755.2019359-.4525082.3167866-.7288709.3172894h-38c-.277058.0006041-.5419495-.1137635-.7315043-.3158289-.1895549-.2020655-.2867822-.4737166-.2684957-.7501711.215-3.854 1.561-8.6 3.784-10.934 2.863-3 8.2-4 8.2-4z" fill="#4482c3"/><path id="Shape" d="m44.02 35.36c.06 2.03.4 5.06 1.98 6.64 0 0-2 3-8 3s-8-3-8-3c1.58-1.58 1.92-4.61 1.98-6.64z" fill="#f9c795"/><path id="Shape" d="m27 27c-2.2041684 0-3.991-1.7868316-3.991-3.991s1.7868316-3.991 3.991-3.991c0 0-6-9.976 2-13.967 0 0 4.638-8.33 15.7-3.595.1845665.07586904.3063479.25421798.3098254.45373943.0034775.19952144-.1120149.38200588-.2938254.46426057-.5350889.24164505-1.0002284.61492642-1.352 1.085-.0974031.12950887-.1260015.29819135-.0767282.45256769.0492733.15437635.170307.2752998.3247282.32443231 1.872.61 7.386 2.829 7.386 7.8 0 5.986-2 6.983-2 6.983 1.4407164-.0231658 2.7820548.7320561 3.5093912 1.9759138.7273364 1.2438578.7277222 2.7831916.0010093 4.0274137s-2.0676727 2.0001162-3.5084005 1.9776725v2.185c-.0000931 1.1533462-.4980139 2.2505215-1.366 3.01l-5.5 4.815c-.7291168.6381271-1.6650741.9899106-2.634.99h-3c-.9689259-.0000894-1.9048832-.3518729-2.634-.99l-5.5-4.815c-.8679861-.7594785-1.3659069-1.8566538-1.366-3.01z" fill="#fdd7ad"/><path id="Shape" d="m40 32h-4c-.5522847 0-1-.4477153-1-1s.4477153-1 1-1h4c.5522847 0 1 .4477153 1 1s-.4477153 1-1 1z" fill="#f09372"/><path id="Shape" d="m39 35h-2c-.5522847 0-1-.4477153-1-1s.4477153-1 1-1h2c.5522847 0 1 .4477153 1 1s-.4477153 1-1 1z" fill="#f09372"/><path id="Shape" d="m33 24c-.5522847 0-1-.4477153-1-1v-1c0-.5522847.4477153-1 1-1s1 .4477153 1 1v1c0 .5522847-.4477153 1-1 1z" fill="#4482c3"/><path id="Shape" d="m43 24c-.5522847 0-1-.4477153-1-1v-1c0-.5522847.4477153-1 1-1s1 .4477153 1 1v1c0 .5522847-.4477153 1-1 1z" fill="#4482c3"/><path id="Shape" d="m39 28h-2c-.5522847 0-1-.4477153-1-1s.4477153-1 1-1h2c.5522847 0 1 .4477153 1 1s-.4477153 1-1 1z" fill="#f09372"/><circle id="Oval" cx="4" cy="13" fill="#f3d55b" r="1"/><circle id="Oval" cx="8" cy="13" fill="#ff5364" r="1"/><circle id="Oval" cx="12" cy="13" fill="#65ddb9" r="1"/><path id="Shape" d="m7 22h-2c-.55228475 0-1-.4477153-1-1s.44771525-1 1-1h2c.55228475 0 1 .4477153 1 1s-.44771525 1-1 1z" fill="#ff5364"/><path id="Shape" d="m19 22h-8c-.5522847 0-1-.4477153-1-1s.4477153-1 1-1h8c.5522847 0 1 .4477153 1 1s-.4477153 1-1 1z" fill="#285680"/><path id="Shape" d="m7 26h-2c-.55228475 0-1-.4477153-1-1s.44771525-1 1-1h2c.55228475 0 1 .4477153 1 1s-.44771525 1-1 1z" fill="#ff5364"/><path id="Shape" d="m19 26h-8c-.5522847 0-1-.4477153-1-1s.4477153-1 1-1h8c.5522847 0 1 .4477153 1 1s-.4477153 1-1 1z" fill="#285680"/><path id="Shape" d="m7 30h-2c-.55228475 0-1-.4477153-1-1s.44771525-1 1-1h2c.55228475 0 1 .4477153 1 1s-.44771525 1-1 1z" fill="#ff5364"/><path id="Shape" d="m19 30h-8c-.5522847 0-1-.4477153-1-1s.4477153-1 1-1h8c.5522847 0 1 .4477153 1 1s-.4477153 1-1 1z" fill="#285680"/><path id="Shape" d="m7 34h-2c-.55228475 0-1-.4477153-1-1s.44771525-1 1-1h2c.55228475 0 1 .4477153 1 1s-.44771525 1-1 1z" fill="#ff5364"/><path id="Shape" d="m23 34h-5c-.5522847 0-1-.4477153-1-1s.4477153-1 1-1h5c.5522847 0 1 .4477153 1 1s-.4477153 1-1 1z" fill="#285680"/><path id="Shape" d="m14 34h-3c-.5522847 0-1-.4477153-1-1s.4477153-1 1-1h3c.5522847 0 1 .4477153 1 1s-.4477153 1-1 1z" fill="#285680"/><path id="Shape" d="m7 38h-2c-.55228475 0-1-.4477153-1-1s.44771525-1 1-1h2c.55228475 0 1 .4477153 1 1s-.44771525 1-1 1z" fill="#ff5364"/><path id="Shape" d="m20 38h-9c-.5522847 0-1-.4477153-1-1s.4477153-1 1-1h9c.5522847 0 1 .4477153 1 1s-.4477153 1-1 1z" fill="#285680"/><path id="Shape" d="m27 38h-3c-.5522847 0-1-.4477153-1-1s.4477153-1 1-1h3c.5522847 0 1 .4477153 1 1s-.4477153 1-1 1z" fill="#285680"/><path id="Shape" d="m7 42h-2c-.55228475 0-1-.4477153-1-1s.44771525-1 1-1h2c.55228475 0 1 .4477153 1 1s-.44771525 1-1 1z" fill="#ff5364"/><path id="Shape" d="m22 42h-11c-.5522847 0-1-.4477153-1-1s.4477153-1 1-1h11c.5522847 0 1 .4477153 1 1s-.4477153 1-1 1z" fill="#285680"/><path id="Shape" d="m7 46h-2c-.55228475 0-1-.4477153-1-1s.44771525-1 1-1h2c.55228475 0 1 .4477153 1 1s-.44771525 1-1 1z" fill="#ff5364"/><path id="Shape" d="m17 46h-6c-.5522847 0-1-.4477153-1-1s.4477153-1 1-1h6c.5522847 0 1 .4477153 1 1s-.4477153 1-1 1z" fill="#285680"/><path id="Shape" d="m35 20h-4c-.5522847 0-1-.4477153-1-1s.4477153-1 1-1h4c.5522847 0 1 .4477153 1 1s-.4477153 1-1 1z" fill="#cb8252"/><path id="Shape" d="m45 20h-4c-.5522847 0-1-.4477153-1-1s.4477153-1 1-1h4c.5522847 0 1 .4477153 1 1s-.4477153 1-1 1z" fill="#cb8252"/><g fill="#b0d3f0"><path id="Shape" d="m33 55c-.2651948-.0000566-.5195073-.1054506-.707-.293l-2-2c-.3903819-.3904999-.3903819-1.0235001 0-1.414l2-2c.3923789-.3789722 1.0160848-.3735524 1.4018186.0121814s.3911536 1.0094397.0121814 1.4018186l-1.293 1.293 1.293 1.293c.2859079.2859943.3714219.7160366.216678 1.0896546-.1547439.3736179-.5192821.6172591-.923678.6173454z"/><path id="Shape" d="m43 55c-.4043959-.0000863-.7689341-.2437275-.923678-.6173454-.1547439-.373618-.0692299-.8036603.216678-1.0896546l1.293-1.293-1.293-1.293c-.3789722-.3923789-.3735524-1.0160848.0121814-1.4018186s1.0094397-.3911536 1.4018186-.0121814l2 2c.3903819.3904999.3903819 1.0235001 0 1.414l-2 2c-.1874927.1875494-.4418052.2929434-.707.293z"/><path id="Shape" d="m37 55c-.3464401-.000185-.6681037-.1796678-.8501945-.4743943-.1820909-.2947265-.1986643-.6627032-.0438055-.9726057l2-4c.2468713-.4942949.8477051-.6948713 1.342-.448s.6948713.8477051.448 1.342l-2 4c-.1695854.3393743-.5166139.553556-.896.553z"/></g><path id="Shape" d="m51 12.03c0 5.99-2 6.99-2 6.99v-.02c.1260798-1.6009333-.6436055-3.1403038-2-4-8 1-8-1-14-3s-6 7-6 7v.02s-6-9.98 2-13.97c0 0 4.64-8.33 15.7-3.59.1801504.077232.2985597.25260313.3028665.44856337s-.1062832.37636433-.2828665.46143663c-.534355.24426341-.9986209.61911514-1.35 1.09-.0989439.12851668-.1294026.29704252-.0817041.4520628s.1676276.27727297.3217041.3279372c1.88.61 7.39 2.83 7.39 7.79z" fill="#cb8252"/></g></g></svg>