<svg height="512" viewBox="0 0 58 58" width="512" xmlns="http://www.w3.org/2000/svg"><g id="Page-1" fill="none" fill-rule="evenodd"><g id="046---Analytics" fill-rule="nonzero"><rect id="Rectangle-path" fill="#b0d3f0" height="58" rx="5" width="58"/><path id="Shape" d="m58 5v7h-58v-7c0-2.76142375 2.23857625-5 5-5h48c1.3260824 0 2.597852.5267842 3.5355339 1.46446609.9376819.9376819 1.4644661 2.20945146 1.4644661 3.53553391z" fill="#4482c3"/><circle id="Oval" cx="6" cy="6" fill="#f3d55b" r="2"/><circle id="Oval" cx="14" cy="6" fill="#ff5364" r="2"/><circle id="Oval" cx="22" cy="6" fill="#65ddb9" r="2"/><path id="Shape" d="m52 8c1.1045695 0 2-.8954305 2-2s-.8954305-2-2-2h-10c-1.1045695 0-2 .8954305-2 2s.8954305 2 2 2z" fill="#fff"/><g fill="#547580"><path id="Shape" d="m53 41h-48c-.55228475 0-1-.4477153-1-1s.44771525-1 1-1h48c.5522847 0 1 .4477153 1 1s-.4477153 1-1 1z"/><path id="Rectangle-path" d="m7.13 28.5h8.739v2h-8.739z" transform="matrix(.707 -.707 .707 .707 -17.492 16.772)"/><path id="Rectangle-path" d="m23.13 26.5h8.739v2h-8.739z" transform="matrix(.707 -.707 .707 .707 -11.391 27.5)"/><path id="Rectangle-path" d="m34.5 23.545h2v5.911h-2z" transform="matrix(.707 -.707 .707 .707 -8.341 32.864)"/><path id="Rectangle-path" d="m18.501 25.545h2v5.911h-2z" transform="matrix(.707 -.707 .707 .707 -14.441 22.137)"/><path id="Shape" d="m53 15h-4c-.5522847 0-1 .4477153-1 1s.4477153 1 1 1h1.586l-10.886 10.883 1.417 1.417 10.883-10.886v1.586c0 .5522847.4477153 1 1 1s1-.4477153 1-1v-4c0-.5522847-.4477153-1-1-1z"/></g><path id="Shape" d="m8 54c-.55228475 0-1-.4477153-1-1v-4c0-.5522847.44771525-1 1-1s1 .4477153 1 1v4c0 .5522847-.44771525 1-1 1z" fill="#3b97d3"/><path id="Shape" d="m14 54c-.5522847 0-1-.4477153-1-1v-9c0-.5522847.4477153-1 1-1s1 .4477153 1 1v9c0 .5522847-.4477153 1-1 1z" fill="#ff5364"/><path id="Shape" d="m20 54c-.5522847 0-1-.4477153-1-1v-7c0-.5522847.4477153-1 1-1s1 .4477153 1 1v7c0 .5522847-.4477153 1-1 1z" fill="#f3d55b"/><path id="Shape" d="m26 54c-.5522847 0-1-.4477153-1-1v-4c0-.5522847.4477153-1 1-1s1 .4477153 1 1v4c0 .5522847-.4477153 1-1 1z" fill="#3b97d3"/><path id="Shape" d="m32 54c-.5522847 0-1-.4477153-1-1v-8c0-.5522847.4477153-1 1-1s1 .4477153 1 1v8c0 .5522847-.4477153 1-1 1z" fill="#f3d55b"/><path id="Shape" d="m38 54c-.5522847 0-1-.4477153-1-1v-7c0-.5522847.4477153-1 1-1s1 .4477153 1 1v7c0 .5522847-.4477153 1-1 1z" fill="#3b97d3"/><path id="Shape" d="m44 54c-.5522847 0-1-.4477153-1-1v-9c0-.5522847.4477153-1 1-1s1 .4477153 1 1v9c0 .5522847-.4477153 1-1 1z" fill="#ff5364"/><path id="Shape" d="m50 54c-.5522847 0-1-.4477153-1-1v-6c0-.5522847.4477153-1 1-1s1 .4477153 1 1v6c0 .5522847-.4477153 1-1 1z" fill="#f3d55b"/><circle id="Oval" cx="7" cy="34" fill="#ff5364" r="3"/><circle id="Oval" cx="16" cy="25" fill="#ff5364" r="3"/><circle id="Oval" cx="23" cy="32" fill="#ff5364" r="3"/><circle id="Oval" cx="32" cy="23" fill="#ff5364" r="3"/><circle id="Oval" cx="39" cy="30" fill="#ff5364" r="3"/><path id="Shape" d="m53 54h-48c-.55228475 0-1-.4477153-1-1s.44771525-1 1-1h48c.5522847 0 1 .4477153 1 1s-.4477153 1-1 1z" fill="#547580"/></g></g></svg>