<svg id="bbbc146c-52a9-4c8e-81d7-943fa4f3f811" height="512" viewBox="0 0 60 60" width="512" xmlns="http://www.w3.org/2000/svg" data-name="Icons"><path d="m30 32.21a7.077 7.077 0 0 0 -1.03-1.47 8.553 8.553 0 0 0 -6.45-2.74h-13.04a8.553 8.553 0 0 0 -6.45 2.74 8.254 8.254 0 0 0 -2.03 5.59v2.67a2.006 2.006 0 0 0 2 2h26z" fill="#f0c419"/><path d="m48.12 28h2.4a8.553 8.553 0 0 1 6.45 2.74 8.254 8.254 0 0 1 2.03 5.59v2.67a2.006 2.006 0 0 1 -2 2h-28v-4.67a8.254 8.254 0 0 1 2.03-5.59 8.553 8.553 0 0 1 6.45-2.74h2.4" fill="#3b97d3"/><g fill="#2980ba"><path d="m35 42a1 1 0 0 1 -1-1v-5a1 1 0 0 1 2 0v5a1 1 0 0 1 -1 1z"/><path d="m53 42a1 1 0 0 1 -1-1v-5a1 1 0 0 1 2 0v5a1 1 0 0 1 -1 1z"/><path d="m43 28h2v13h-2z"/></g><path d="m7 42a1 1 0 0 1 -1-1v-5a1 1 0 0 1 2 0v5a1 1 0 0 1 -1 1z" fill="#f29c1f"/><path d="m25 42a1 1 0 0 1 -1-1v-5a1 1 0 0 1 2 0v5a1 1 0 0 1 -1 1z" fill="#f29c1f"/><path d="m15 28h2v13h-2z" fill="#f29c1f"/><path d="m38 28v2.54a2.416 2.416 0 0 0 2.87 2.41l3.13-.64 3.13.64a2.416 2.416 0 0 0 2.87-2.41v-2.54z" fill="#84b5cb"/><path d="m10 28v2.54a2.416 2.416 0 0 0 2.87 2.41l3.13-.64 3.13.64a2.416 2.416 0 0 0 2.87-2.41v-2.54z" fill="#f3d55b"/><rect fill="#547580" height="18" rx="3" width="58" x="1" y="41"/><path d="m24 56a1 1 0 0 1 -.707-.293l-5-5a1 1 0 0 1 0-1.414l5-5a1 1 0 0 1 1.414 1.414l-4.293 4.293 4.293 4.293a1 1 0 0 1 -.707 1.707z" fill="#84b5cb"/><path d="m36 56a1 1 0 0 1 -.707-1.707l4.293-4.293-4.293-4.293a1 1 0 0 1 1.414-1.414l5 5a1 1 0 0 1 0 1.414l-5 5a1 1 0 0 1 -.707.293z" fill="#84b5cb"/><path d="m28 56a.986.986 0 0 1 -.371-.071 1 1 0 0 1 -.558-1.3l4-10a1 1 0 1 1 1.858.742l-4 10a1 1 0 0 1 -.929.629z" fill="#84b5cb"/><path d="m52 14.65v6.7a7.653 7.653 0 0 1 -7.65 7.65h-.7a7.653 7.653 0 0 1 -7.65-7.65v-6.7a7.656 7.656 0 0 1 7.65-7.65h.7a7.656 7.656 0 0 1 7.65 7.65z" fill="#cf976a"/><path d="m34.5 16h1.5a0 0 0 0 1 0 0v5a0 0 0 0 1 0 0h-1.5a2.5 2.5 0 0 1 -2.5-2.5 2.5 2.5 0 0 1 2.5-2.5z" fill="#a56a43"/><path d="m52 16h1.5a2.5 2.5 0 0 1 2.5 2.5 2.5 2.5 0 0 1 -2.5 2.5h-1.5a0 0 0 0 1 0 0v-5a0 0 0 0 1 0 0z" fill="#a56a43"/><path d="m24 14.65v6.7a7.653 7.653 0 0 1 -7.65 7.65h-.7a7.653 7.653 0 0 1 -7.65-7.65v-6.7a7.656 7.656 0 0 1 7.65-7.65h.7a7.656 7.656 0 0 1 7.65 7.65z" fill="#fdd7ad"/><path d="m6.5 16h1.5a0 0 0 0 1 0 0v5a0 0 0 0 1 0 0h-1.5a2.5 2.5 0 0 1 -2.5-2.5 2.5 2.5 0 0 1 2.5-2.5z" fill="#f9c795"/><path d="m24 16h1.5a2.5 2.5 0 0 1 2.5 2.5 2.5 2.5 0 0 1 -2.5 2.5h-1.5a0 0 0 0 1 0 0v-5a0 0 0 0 1 0 0z" fill="#f9c795"/><path d="m52 14.65v2.55c-4.59.04-5.73-4.53-5.73-4.53 0 4.53-10.2 3.4-10.2 3.4l-.07-.01v-1.41a7.656 7.656 0 0 1 7.65-7.65h.7a7.656 7.656 0 0 1 7.65 7.65z" fill="#805333"/><path d="m24 14.65v2.55c-4.59.04-5.73-4.53-5.73-4.53 0 4.53-10.2 3.4-10.2 3.4l-.07-.01v-1.41a7.656 7.656 0 0 1 7.65-7.65h.7a7.656 7.656 0 0 1 7.65 7.65z" fill="#cb8252"/></svg>