<?xml version="1.0" encoding="iso-8859-1"?>
<!-- Generator: Adobe Illustrator 19.0.0, SVG Export Plug-In . SVG Version: 6.00 Build 0)  -->
<svg version="1.1" id="Capa_1" xmlns="http://www.w3.org/2000/svg" xmlns:xlink="http://www.w3.org/1999/xlink" x="0px" y="0px"
	 viewBox="0 0 512 512" style="enable-background:new 0 0 512 512;" xml:space="preserve">
<rect x="8" y="8" style="fill:#FFFFFF;" width="496" height="496"/>
<rect x="47.2" y="95.2" style="fill:#D3D7DA;" width="418.4" height="371.2"/>
<g>
	<path style="fill:#193651;" d="M0,0v512h512V0H0z M496,496H16V16h480V496z"/>
	<path style="fill:#193651;" d="M472.8,87.2H39.2v387.2h434.4V87.2H472.8z M456.8,458.4H55.2V103.2h402.4v355.2L456.8,458.4
		L456.8,458.4z"/>
	<rect x="39.2" y="45.6" style="fill:#193651;" width="16" height="16"/>
	<rect x="86.4" y="45.6" style="fill:#193651;" width="16" height="16"/>
	<rect x="133.6" y="45.6" style="fill:#193651;" width="16" height="16"/>
</g>
<g>
	<path style="fill:#FFFFFF;" d="M240.8,308.8v-55.2c0-20.8-13.6-37.6-32.8-42.4c-11.2,13.6-28.8,22.4-48,22.4s-36.8-8.8-48-22.4
		c-19.2,4.8-32.8,22.4-32.8,42.4v55.2H240.8z"/>
	<circle style="fill:#FFFFFF;" cx="160" cy="170.4" r="39.2"/>
</g>
<g>
	<rect x="79.2" y="345.6" style="fill:#193651;" width="161.6" height="16"/>
	<rect x="278.4" y="141.6" style="fill:#193651;" width="161.6" height="16"/>
	<rect x="278.4" y="203.2" style="fill:#193651;" width="161.6" height="16"/>
	<rect x="278.4" y="264.8" style="fill:#193651;" width="161.6" height="16"/>
	<rect x="313.6" y="380" style="fill:#193651;" width="127.2" height="16"/>
	<rect x="278.4" y="380" style="fill:#193651;" width="16" height="16"/>
	<rect x="313.6" y="420" style="fill:#193651;" width="127.2" height="16"/>
	<rect x="278.4" y="420" style="fill:#193651;" width="16" height="16"/>
</g>
<g>
</g>
<g>
</g>
<g>
</g>
<g>
</g>
<g>
</g>
<g>
</g>
<g>
</g>
<g>
</g>
<g>
</g>
<g>
</g>
<g>
</g>
<g>
</g>
<g>
</g>
<g>
</g>
<g>
</g>
</svg>
