<svg clip-rule="evenodd" fill-rule="evenodd" height="512" image-rendering="optimizeQuality" shape-rendering="geometricPrecision" text-rendering="geometricPrecision" viewBox="0 0 1.70666 1.70666" width="512" xmlns="http://www.w3.org/2000/svg"><g id="Layer_x0020_1"><path d="m1.02845.956488c-.005 0-.01-.00190551-.013815-.00572441l-.258823-.258811c-.00366142-.00366535-.00572047-.00863386-.00572047-.0138189 0-.0051811.00205906-.0101496.00572047-.013815l.119764-.11976c.00485433-.0048622.0119134-.00680709.0185709-.0051378.00666142.00167323.0119606.00672047.0139488.0132953.0174409.0576457.049315.11076.0921654.153606.0428465.0428465.0959646.0747165.153606.0921654.0065748.00198819.0116181.00728346.0132913.0139488.00167323.00666142-.00027953.0137087-.0051378.0185669l-.119756.119756c-.00381496.00382283-.00881496.00572835-.013815.00572835zm-.231185-.27835.231185.231177.0838976-.0838976c-.0520906-.0204213-.0999173-.0516575-.139713-.0914567-.039811-.0397992-.0710472-.087626-.0914646-.13972l-.0839055.0838976z"/><path d="m1.26107.853437c-.108957 0-.211398-.0424331-.288441-.11948-.0770512-.0770472-.119484-.179484-.119484-.288445s.0424291-.211398.11948-.288445c.00762992-.00762992.0200079-.00762992.0276299 0l.54926.549256c.00366535.00366535.00572441.00863386.00572441.0138189s-.00205906.0101535-.00572441.0138189c-.0770472.0770433-.179484.119476-.288445.119476zm-.27428-.654563c-.0611299.067815-.0945709.154657-.0945669.246638 0 .0985197.0383701.191146.108035.260811.0696693.0696654.162291.108031.260815.108031.0919764 0 .178823-.0334449.246638-.0945748l-.520921-.520906z"/><path d="m.255181 1.70656c-.0673701 0-.133189-.0271811-.180583-.0745787-.0496339-.0496299-.0767677-.118437-.0744488-.188783.00212992-.0645315.0289055-.122496.0753898-.163217l.691776-.60598c.00774409-.00677953.0194213-.00639764.0266929.00088189l.237689.237693c.00727953.00727559.00766535.0189488.00088583.026689l-.605984.691776c-.0426535.0487008-.103531.0755197-.171417.0755197zm.524126-.991114-.67802.593929c-.0382638.0335157-.060311.0815-.0620787.13511-.0019685.0595827.021.11785.0630197.159866.0401181.0401181.0958701.0631299.152953.0631299.0564567 0 .106894-.0220866.14202-.0621929l.593933-.678016-.211827-.211827z"/><path d="m1.15071.354693c-.0051811 0-.0101496-.00205906-.013815-.00572047l-.163008-.163008c-.00366929-.00366535-.00572441-.00863386-.00572441-.0138189s.00205512-.0101535.00572441-.0138189l.0852756-.0852677c.0470433-.0470512.109843-.0729606.176819-.0729606.0669764 0 .129768.0259134.176819.0729606.00762992.00762992.00762992.0200039-.00000394.0276339l-.248272.248276c-.00366535.00366535-.00862992.00572441-.013815.00572441zm-.135374-.182547.13537.135374.220008-.220004c-.0376575-.0313031-.084815-.0483386-.134736-.0483386-.0565354 0-.109516.0218465-.149185.0615197l-.0714567.0714488z"/><path d="m1.53444.738413c-.00500394 0-.0100039-.00190551-.013815-.00572047l-.163008-.163004c-.00763386-.00762992-.00763386-.0200039 0-.0276339l.248272-.248276c.00594488-.00594488.0150354-.00741732.0225551-.00366142.00187402.00094488.00359843.0021811.00508268.00366535.0974961.0975.0974961.256142 0 .353642l-.0852756.0852677c-.00381102.00381496-.00881496.00572047-.013811.00572047zm-.13537-.182543.135366.135374.0714567-.0714567c.0776063-.0776063.0820039-.201126.0131772-.283929l-.22.220012z"/><path d="m.258409 1.57807c-.0346969 0-.0673189-.0135118-.0918543-.0380551-.0245354-.0245315-.0380512-.0571535-.0380512-.0918504s.0135118-.0673228.0380512-.0918583c.0245394-.0245354.0571575-.0380512.0918543-.0380512.0347008 0 .0673228.0135118.0918583.0380472.0245354.0245394.0380512.0571654.0380512.0918622 0 .0346969-.0135118.0673189-.0380512.0918543s-.0571575.0380512-.0918583.0380512zm0-.220732c-.0242559 0-.0470669.00944882-.0642205.0266063-.0171575.0171535-.0266063.0399606-.0266063.0642244 0 .0242598.00944882.0470669.0266063.0642205.0171535.0171575.0399606.0266063.0642205.0266063.0242638 0 .0470709-.00944882.0642244-.0266063.0171575-.0171535.0266024-.0399606.0266024-.0642205 0-.0242638-.00944488-.0470709-.0266024-.0642283-.0171535-.0171535-.0399646-.0266024-.0642244-.0266024z"/><path d="m1.17274.665232c-.005 0-.01-.00190551-.013815-.00572047l-.11185-.111846c-.00366535-.00366535-.00572441-.00863386-.00572441-.0138189s.00205906-.0101535.00572441-.0138189l.074626-.074622c.00762992-.00762992.0200079-.00762992.0276299 0l.11185.111846c.00366535.00366535.00572441.00863386.00572441.0138189 0 .0051811-.00205906.0101535-.00572441.013815l-.074626.074626c-.00381102.00381102-.00881496.00572047-.013815.00572047zm-.0842165-.131386.0842165.0842126.0469921-.0469882-.0842165-.0842165z"/><path d="m.419701 1.30641c-.005 0-.01-.00190551-.013815-.00572441-.00762992-.00762992-.00762992-.0200039 0-.0276299l.396079-.396079c.00762992-.00763386.02-.00763386.0276299 0 .00762992.00762992.00762992.0200039 0 .0276299l-.396075.396079c-.00381496.00381496-.00881496.00572441-.0138189.00572441z"/><path d="m.829594.90461-.396075.396079c-.00381496.00381496-.00881496.00572441-.0138189.00572441-.005 0-.01-.00190551-.013815-.00572441-.00762992-.00762992-.00762992-.0200039 0-.0276299l.396079-.396079c.00762992-.00763386.02-.00763386.0276299 0 .00762992.00762992.00762992.0200039 0 .0276299zm-.441276.543559c0 .0346969-.0135118.0673189-.0380512.0918543s-.0571575.0380512-.0918583.0380512c-.0346969 0-.0673189-.0135118-.0918543-.0380551-.0245354-.0245315-.0380512-.0571535-.0380512-.0918504s.0135118-.0673228.0380512-.0918583c.0245394-.0245354.0571575-.0380512.0918543-.0380512.0347008 0 .0673228.0135118.0918583.0380472.0245354.0245394.0380512.0571654.0380512.0918622zm-.286091.156181c.0401181.0401181.0958701.0631299.152953.0631299.0564567 0 .106894-.0220866.14202-.0621929l.593933-.678016-.211827-.211827-.67802.593929c-.0382638.0335157-.060311.0815-.0620787.13511-.0019685.0595827.021.11785.0630197.159866z" fill="#b1c3c9"/><path d="m.797264.678138.231185.231177.0837717-.0837717c-.0490866-.0192126-.0943268-.0480394-.133382-.0855118-.00209055-.002-.00415748-.00402362-.00620472-.00607087-.00232677-.00232677-.00462205-.00467717-.00688976-.00705906-.0370787-.0388661-.0656299-.0838071-.0847008-.132535l-.0837795.0837717z" fill="#cfe1e5"/><g fill="#4e7693"><path d="m1.00598.451311.05491.054902.04699-.046993-.0549-.054905z"/><path d="m1.13551.486854-.04699.046992.08422.084213.04699-.046988z" stroke="#4e7693" stroke-width=".003"/><path d="m1.24736.598701-.04699.046992.0549.054905.04699-.046992z"/></g><path d="m1.39907.55587.135366.135374.0714567-.0714567c.0776063-.0776063.0820039-.201126.0131772-.283929l-.22.220012z" fill="#b1c3c9"/><path d="m1.15071.30752.220008-.220004c-.0376575-.0313031-.084815-.0483386-.134736-.0483386-.0565354 0-.109516.0218465-.149185.0615197l-.0714567.0714488.13537.135374z" fill="#4e7693"/><path d="m1.25527.747772c-.005 0-.01-.00190945-.013815-.00572047l-.276921-.276921c-.00763386-.00762992-.00763386-.0200039 0-.0276339l.074626-.0746299c.00366535-.00366142.00863386-.00572047.013815-.00572047.00518504 0 .0101535.00205906.013815.00572047l.276921.276929c.00366929.00366142.00572441.00863386.00572441.013815 0 .00518504-.00205512.0101575-.00572441.0138189l-.074626.074622c-.00381102.00381102-.00881496.00572047-.013815.00572047zm-.249287-.296461.249287.249287.0469921-.0469921-.249287-.249291z"/><path d="m1.25527.747772c-.005 0-.01-.00190945-.013815-.00572047l-.0825354-.0825394-.11185-.111846-.0825354-.0825354c-.00763386-.00762992-.00763386-.0200039 0-.0276339l.074626-.0746299c.00366535-.00366142.00863386-.00572047.013815-.00572047.00518504 0 .0101535.00205906.013815.00572047l.0825354.0825394.11185.111846c.00009449.00009449.00018504.00018504.00027559.00027953l.0822598.0822638c.00366929.00366142.00572441.00863386.00572441.013815 0 .00518504-.00205512.0101575-.00572441.0138189l-.074626.074622c-.00381102.00381102-.00881496.00572047-.013815.00572047zm-.255012-.0414488c.00194488.00194488.00391339.00387008.00590157.00577165.0417795.0399409.0926811.0697362.147705.0863937.00067717.00020472.00133858.00044488.00198031.00071654.0337205.00998425.0690787.0151496.105232.0151496.0919764 0 .178823-.0334449.246638-.0945748l-.150102-.150091c-.0001063-.0001063-.0002126-.00021654-.0003189-.00032677l-.220315-.220307c-.00002756-.00002756-.00005512-.00005512-.00008268-.00008268l-.150102-.150098c-.0611299.067815-.0945709.154657-.0945669.246638 0 .0361496.00516535.0715039.0151457.10522.00027559.00064173.00051575.00130709.00072047.00198425.0166024.054878.0462874.10565.0860709.147366.00200787.00210236.00403937.00418504.00609449.00624016z" fill="#b1c3c9"/></g></svg>